<svg width="50" height="50" viewBox="0 0 50 50" fill="none" xmlns="http://www.w3.org/2000/svg">
<rect width="50" height="50" rx="25" fill="white"/>
<path d="M34.907 18.3665C34.969 18.5745 35 18.7905 35 19.0075V30.4845C34.9999 30.8347 34.918 31.18 34.7609 31.493C34.6038 31.806 34.3758 32.078 34.0951 32.2874C33.8144 32.4968 33.4886 32.6377 33.1438 32.699C32.799 32.7603 32.4447 32.7403 32.109 32.6405L26.595 31.0005C26.2047 31.7965 25.5611 32.4404 24.7653 32.8311C23.9695 33.2218 23.0665 33.3371 22.198 33.1591C21.3295 32.981 20.5447 32.5197 19.9668 31.8473C19.3889 31.175 19.0506 30.3299 19.005 29.4445L19 29.2445L18.999 28.7445L16.609 28.0335C16.144 27.8953 15.7361 27.6105 15.4462 27.2216C15.1562 26.8328 14.9997 26.3606 15 25.8755V23.6145C15.0002 23.1296 15.1571 22.6578 15.4472 22.2693C15.7373 21.8808 16.1452 21.5964 16.61 21.4585L32.11 16.8525C32.6818 16.6827 33.2976 16.7469 33.8221 17.031C34.3466 17.3151 34.7368 17.7948 34.907 18.3665ZM20.499 29.1895L20.5 29.2435C20.4995 29.7872 20.6762 30.3163 21.0034 30.7505C21.3306 31.1847 21.7905 31.5004 22.3133 31.6498C22.8361 31.7991 23.3933 31.774 23.9005 31.5781C24.4077 31.3823 24.8372 31.0264 25.124 30.5645L20.499 29.1895ZM32.536 18.2895L17.036 22.8945C16.881 22.9407 16.745 23.0357 16.6484 23.1655C16.5518 23.2952 16.4997 23.4527 16.5 23.6145V25.8755C16.4997 26.0373 16.5518 26.1948 16.6484 26.3245C16.745 26.4543 16.881 26.5493 17.036 26.5955L32.536 31.2025C32.648 31.2358 32.7663 31.2426 32.8814 31.2221C32.9965 31.2016 33.1052 31.1545 33.1988 31.0846C33.2925 31.0146 33.3685 30.9238 33.4207 30.8192C33.473 30.7147 33.5002 30.5994 33.5 30.4825V19.0085C33.5 18.8917 33.4728 18.7765 33.4204 18.6721C33.3681 18.5677 33.292 18.477 33.1984 18.4071C33.1048 18.3373 32.9961 18.2903 32.8811 18.2699C32.7661 18.2494 32.6479 18.2562 32.536 18.2895Z" fill="#9B7CB7"/>
</svg>
