  <svg width="432" height="740" viewBox="0 0 432 740" fill="none" xmlns="http://www.w3.org/2000/svg">
    <g filter="url(#filter0_d_92_446)">
      <rect
        x="28.5" y="21.5" width="373" height="693" rx="36.5" stroke="white" stroke-width="7"
        shape-rendering="crispEdges"
      />
      <path d="M32 58C32 39.7746 46.7746 25 65 25H365C383.225 25 398 39.7746 398 58V113H32V58Z" fill="#00A884" />
      <g clip-path="url(#clip0_92_446)">
        <path
          d="M76 89C87.0457 89 96 80.0457 96 69C96 57.9543 87.0457 49 76 49C64.9543 49 56 57.9543 56 69C56 80.0457 64.9543 89 76 89Z"
          fill="#008069"
        />
        <path
          d="M82.0704 64.963C82.5687 64.963 83.0139 65.2747 83.1842 65.7431L84.6926 69.8913C84.9163 70.5064 84.599 71.1864 83.9838 71.4101C83.854 71.4573 83.7169 71.4815 83.5788 71.4815H83.4931V75.9259C83.4931 76.4168 83.0951 76.8148 82.6042 76.8148C82.1133 76.8148 81.7153 76.4168 81.7153 75.9259V71.4815H78.1598V75.6296C78.1598 76.2842 77.6291 76.8148 76.9746 76.8148H70.4561C69.8015 76.8148 69.2709 76.2842 69.2709 75.6296V71.4815H69.1852C68.5306 71.4815 68 70.9509 68 70.2963C68 70.1582 68.0241 70.0211 68.0713 69.8913L69.5798 65.7431C69.7501 65.2747 70.1952 64.963 70.6936 64.963H82.0704ZM76.382 71.4815H71.0487V75.037H76.382V71.4815ZM82.0116 62C82.5025 62 82.9005 62.398 82.9005 62.8889C82.9005 63.3798 82.5025 63.7778 82.0116 63.7778H70.7524C70.2614 63.7778 69.8635 63.3798 69.8635 62.8889C69.8635 62.398 70.2614 62 70.7524 62H82.0116Z"
          fill="white"
        />
      </g>
      <path d="M106 69H231" stroke="white" stroke-width="8" stroke-linecap="round" />
      <path d="M32 113H398V678C398 696.225 383.225 711 365 711H65C46.7746 711 32 696.225 32 678V113Z" fill="#EAE6DF" />
      <!-- <path
        d="M50 131H348C354.627 131 360 136.373 360 143V234C360 240.627 354.627 246 348 246H62C55.3726 246 50 240.627 50 234V131Z"
        fill="white"
      /> -->
      <!-- <path
        d="M309.792 232V226.13L308.572 226.44V225.69L310.162 225H310.812V232H309.792ZM315.453 232V230.57H311.943V229.79L315.293 225H316.443V229.7H317.443V230.57H316.443V232H315.453ZM313.033 229.7H315.513V226.1L313.033 229.7ZM318.834 232.05C318.641 232.05 318.481 231.99 318.354 231.87C318.234 231.743 318.174 231.593 318.174 231.42C318.174 231.24 318.234 231.09 318.354 230.97C318.481 230.843 318.641 230.78 318.834 230.78C319.027 230.78 319.184 230.843 319.304 230.97C319.424 231.09 319.484 231.24 319.484 231.42C319.484 231.593 319.424 231.743 319.304 231.87C319.184 231.99 319.027 232.05 318.834 232.05ZM318.834 228.11C318.641 228.11 318.481 228.05 318.354 227.93C318.234 227.803 318.174 227.653 318.174 227.48C318.174 227.3 318.234 227.15 318.354 227.03C318.481 226.903 318.641 226.84 318.834 226.84C319.027 226.84 319.184 226.903 319.304 227.03C319.424 227.15 319.484 227.3 319.484 227.48C319.484 227.653 319.424 227.803 319.304 227.93C319.184 228.05 319.027 228.11 318.834 228.11ZM323.392 232.12C322.772 232.12 322.238 231.97 321.792 231.67C321.345 231.363 321.002 230.94 320.762 230.4C320.522 229.853 320.402 229.22 320.402 228.5C320.402 227.78 320.522 227.15 320.762 226.61C321.002 226.063 321.345 225.64 321.792 225.34C322.238 225.033 322.772 224.88 323.392 224.88C324.012 224.88 324.542 225.033 324.982 225.34C325.428 225.64 325.768 226.063 326.002 226.61C326.242 227.15 326.362 227.78 326.362 228.5C326.362 229.22 326.242 229.853 326.002 230.4C325.768 230.94 325.428 231.363 324.982 231.67C324.542 231.97 324.012 232.12 323.392 232.12ZM323.392 231.23C323.765 231.23 324.098 231.12 324.392 230.9C324.692 230.68 324.925 230.367 325.092 229.96C325.258 229.553 325.342 229.067 325.342 228.5C325.342 227.933 325.258 227.447 325.092 227.04C324.925 226.633 324.692 226.323 324.392 226.11C324.098 225.89 323.765 225.78 323.392 225.78C323.012 225.78 322.672 225.89 322.372 226.11C322.072 226.323 321.838 226.633 321.672 227.04C321.505 227.447 321.422 227.933 321.422 228.5C321.422 229.067 321.505 229.553 321.672 229.96C321.838 230.367 322.072 230.68 322.372 230.9C322.672 231.12 323.012 231.23 323.392 231.23ZM329.976 232.12C329.483 232.12 329.059 232.033 328.706 231.86C328.353 231.68 328.073 231.44 327.866 231.14C327.659 230.833 327.533 230.49 327.486 230.11H328.466C328.533 230.45 328.699 230.73 328.966 230.95C329.233 231.163 329.569 231.27 329.976 231.27C330.283 231.27 330.546 231.197 330.766 231.05C330.986 230.903 331.156 230.707 331.276 230.46C331.396 230.213 331.456 229.94 331.456 229.64C331.456 229.32 331.393 229.043 331.266 228.81C331.146 228.57 330.976 228.383 330.756 228.25C330.543 228.117 330.293 228.05 330.006 228.05C329.659 228.05 329.359 228.13 329.106 228.29C328.859 228.443 328.679 228.64 328.566 228.88H327.596L328.176 225H331.946V225.87H328.946L328.576 227.83C328.736 227.65 328.949 227.503 329.216 227.39C329.489 227.277 329.799 227.22 330.146 227.22C330.499 227.22 330.816 227.283 331.096 227.41C331.376 227.53 331.613 227.7 331.806 227.92C332.006 228.14 332.156 228.397 332.256 228.69C332.363 228.983 332.416 229.293 332.416 229.62C332.416 229.973 332.359 230.3 332.246 230.6C332.133 230.9 331.969 231.167 331.756 231.4C331.549 231.627 331.293 231.803 330.986 231.93C330.686 232.057 330.349 232.12 329.976 232.12ZM336.267 232V225H338.657C339.217 225 339.677 225.093 340.037 225.28C340.397 225.467 340.664 225.717 340.837 226.03C341.01 226.343 341.097 226.7 341.097 227.1C341.097 227.48 341.01 227.83 340.837 228.15C340.67 228.463 340.407 228.717 340.047 228.91C339.687 229.097 339.224 229.19 338.657 229.19H337.267V232H336.267ZM337.267 228.36H338.617C339.144 228.36 339.517 228.247 339.737 228.02C339.964 227.787 340.077 227.48 340.077 227.1C340.077 226.693 339.964 226.38 339.737 226.16C339.517 225.94 339.144 225.83 338.617 225.83H337.267V228.36ZM342.175 232V225H343.355L345.725 229.73L348.085 225H349.275V232H348.275V226.75L346.105 231.02H345.335L343.175 226.76V232H342.175Z"
        fill="#7E7E7E"
      /> -->
      <g clip-path="url(#clip1_92_446)">
        <path
          d="M61.29 131C60.0877 131 48.2843 131 45.8797 131C44.039 131 43.4481 132.162 44.5494 133.582L51.276 142.253"
          fill="white"
        />
      </g>
      <rect x="40" y="657" width="350" height="46" rx="23" fill="white" />
      <path d="M19 154C19 150.686 21.6863 148 25 148V178C21.6863 178 19 175.314 19 172V154Z" fill="white" />
      <path d="M19 192C19 188.686 21.6863 186 25 186V216C21.6863 216 19 213.314 19 210V192Z" fill="white" />
      <path d="M405 138C408.314 138 411 140.686 411 144V192C411 195.314 408.314 198 405 198V138Z" fill="white" />
    </g>
    <defs>
      <filter
        id="filter0_d_92_446" x="0" y="0" width="432" height="740" filterUnits="userSpaceOnUse"
        color-interpolation-filters="sRGB"
      >
        <feFlood flood-opacity="0" result="BackgroundImageFix" />
        <feColorMatrix
          in="SourceAlpha" type="matrix" values="0 0 0 0 0 0 0 0 0 0 0 0 0 0 0 0 0 0 127 0"
          result="hardAlpha"
        />
        <feOffset dx="1" dy="2" />
        <feGaussianBlur stdDeviation="10" />
        <feComposite in2="hardAlpha" operator="out" />
        <feColorMatrix type="matrix" values="0 0 0 0 0 0 0 0 0 0 0 0 0 0 0 0 0 0 0.2 0" />
        <feBlend mode="normal" in2="BackgroundImageFix" result="effect1_dropShadow_92_446" />
        <feBlend mode="normal" in="SourceGraphic" in2="effect1_dropShadow_92_446" result="shape" />
      </filter>
      <clipPath id="clip0_92_446">
        <rect width="40" height="40" fill="white" transform="translate(56 49)" />
      </clipPath>
      <clipPath id="clip1_92_446">
        <rect width="6" height="11" fill="white" transform="matrix(-1 0 0 1 50 131)" />
      </clipPath>
    </defs>
  </svg>
