<svg width="50" height="50" viewBox="0 0 50 50" fill="none" xmlns="http://www.w3.org/2000/svg">
<rect width="50" height="50" rx="25" fill="white"/>
<path d="M31.7491 22.7096V22.005C31.7491 18.1362 28.7274 15 25 15C21.2726 15 18.2509 18.1362 18.2509 22.005V22.7096C18.2509 23.5552 18.0097 24.3818 17.5578 25.0854L16.4504 26.8095C15.4388 28.3843 16.2111 30.5249 17.9704 31.0229C22.5727 32.3257 27.4273 32.3257 32.0296 31.0229C33.789 30.5249 34.5612 28.3843 33.5496 26.8095L32.4422 25.0854C31.9903 24.3818 31.7491 23.5552 31.7491 22.7096Z" stroke="black" stroke-width="1.5"/>
<path d="M20.5 32C21.155 33.7478 22.9225 35 25 35C27.0775 35 28.845 33.7478 29.5 32" stroke="black" stroke-width="1.5" stroke-linecap="round"/>
</svg>
